{
    "asset" : {
        "generator" : "Khronos glTF Blender I/O v1.0.5",
        "version" : "2.0"
    },
    "scene" : 0,
    "scenes" : [
        {
            "name" : "Scene",
            "nodes" : [
                0,
                1,
                2,
                3,
                4,
                5,
                6,
                7,
                8,
                9,
                10,
                11,
                12
            ]
        }
    ],
    "nodes" : [
        {
            "mesh" : 0,
            "name" : "Cube",
            "scale" : [
                0.09221049398183823,
                0.13831573724746704,
                0.007684207521378994
            ],
            "translation" : [
                0,
                0.22859999537467957,
                -0.297507107257843
            ]
        },
        {
            "mesh" : 1,
            "name" : "Sphere",
            "scale" : [
                1.500001072883606,
                1.5000005960464478,
                1.5000005960464478
            ],
            "translation" : [
                0,
                0.22859999537467957,
                -0.2215856909751892
            ]
        },
        {
            "name" : "Sun",
            "translation" : [
                0,
                2.5721569061279297,
                1.318235158920288
            ]
        },
        {
            "name" : "Point",
            "translation" : [
                -0.45719999074935913,
                0.54880690574646,
                -0.07620000094175339
            ]
        },
        {
            "name" : "Point.001",
            "translation" : [
                0.45719999074935913,
                0.5406053066253662,
                -0.07620000094175339
            ]
        },
        {
            "mesh" : 2,
            "name" : "Cube.001",
            "scale" : [
                0.09605259448289871,
                0.003842103760689497,
                0.003842103760689497
            ],
            "translation" : [
                0,
                0.45719999074935913,
                0.00634999992325902
            ]
        },
        {
            "mesh" : 3,
            "name" : "Cube.002",
            "rotation" : [
                0.7071067690849304,
                0,
                0,
                0.7071067690849304
            ],
            "scale" : [
                0.003842103760689497,
                0.003842103760689497,
                0.14215783774852753
            ],
            "translation" : [
                -0.15240000188350677,
                0.22859999537467957,
                0.00634999992325902
            ]
        },
        {
            "mesh" : 4,
            "name" : "Cube.003",
            "scale" : [
                0.09605259448289871,
                0.003842103760689497,
                0.003842103760689497
            ],
            "translation" : [
                0,
                -0.00317499996162951,
                0.00634999992325902
            ]
        },
        {
            "mesh" : 5,
            "name" : "Cube.004",
            "rotation" : [
                0.7071067690849304,
                0,
                0,
                0.7071067690849304
            ],
            "scale" : [
                0.003842103760689497,
                0.003842103760689497,
                0.14215783774852753
            ],
            "translation" : [
                0.15240000188350677,
                0.22859999537467957,
                0.00634999992325902
            ]
        },
        {
            "mesh" : 6,
            "name" : "Sphere.001",
            "scale" : [
                0.2500001788139343,
                0.25000008940696716,
                0.25000008940696716
            ],
            "translation" : [
                0.45719999074935913,
                0.5461000204086304,
                -0.07620000094175339
            ]
        },
        {
            "mesh" : 7,
            "name" : "Sphere.002",
            "scale" : [
                0.2500001788139343,
                0.25000008940696716,
                0.25000008940696716
            ],
            "translation" : [
                -0.45719999074935913,
                0.5461000204086304,
                -0.07620000094175339
            ]
        },
        {
            "mesh" : 8,
            "name" : "Back Wall",
            "rotation" : [
                0.7071067690849304,
                0,
                0,
                0.7071067690849304
            ],
            "scale" : [
                1,
                1,
                0.6666667461395264
            ],
            "translation" : [
                0,
                1.0160000324249268,
                -1.0160000324249268
            ]
        },
        {
            "mesh" : 9,
            "name" : "Floor",
            "rotation" : [
                0,
                0,
                -0.0008726644446142018,
                1
            ],
            "scale" : [
                1,
                1,
                0.3333333730697632
            ],
            "translation" : [
                0,
                0,
                -0.5080000162124634
            ]
        }
    ],
    "materials" : [
        {
            "doubleSided" : true,
            "name" : "Material.003",
            "pbrMetallicRoughness" : {
                "metallicFactor" : 0,
                "roughnessFactor" : 0.5
            }
        },
        {
            "doubleSided" : true,
            "name" : "Material.002",
            "pbrMetallicRoughness" : {
                "baseColorFactor" : [
                    0.3588448464870453,
                    0.3588448464870453,
                    0.3588448464870453,
                    1
                ],
                "metallicFactor" : 0,
                "roughnessFactor" : 0.5
            }
        },
        {
            "doubleSided" : true,
            "name" : "Material.001",
            "pbrMetallicRoughness" : {
                "baseColorFactor" : [
                    0.07323739677667618,
                    0.07323739677667618,
                    0.07323739677667618,
                    1
                ],
                "metallicFactor" : 0,
                "roughnessFactor" : 0.5
            }
        }
    ],
    "meshes" : [
        {
            "name" : "Cube.001",
            "primitives" : [
                {
                    "attributes" : {
                        "POSITION" : 0,
                        "NORMAL" : 1,
                        "TANGENT" : 2,
                        "TEXCOORD_0" : 3
                    },
                    "indices" : 4,
                    "material" : 0
                }
            ]
        },
        {
            "name" : "Sphere",
            "primitives" : [
                {
                    "attributes" : {
                        "POSITION" : 5,
                        "NORMAL" : 6,
                        "TANGENT" : 7,
                        "TEXCOORD_0" : 8
                    },
                    "indices" : 9
                }
            ]
        },
        {
            "name" : "Cube.002",
            "primitives" : [
                {
                    "attributes" : {
                        "POSITION" : 10,
                        "NORMAL" : 11,
                        "TANGENT" : 12,
                        "TEXCOORD_0" : 13
                    },
                    "indices" : 4
                }
            ]
        },
        {
            "name" : "Cube.003",
            "primitives" : [
                {
                    "attributes" : {
                        "POSITION" : 14,
                        "NORMAL" : 15,
                        "TANGENT" : 16,
                        "TEXCOORD_0" : 17
                    },
                    "indices" : 4
                }
            ]
        },
        {
            "name" : "Cube.004",
            "primitives" : [
                {
                    "attributes" : {
                        "POSITION" : 18,
                        "NORMAL" : 19,
                        "TANGENT" : 20,
                        "TEXCOORD_0" : 21
                    },
                    "indices" : 4
                }
            ]
        },
        {
            "name" : "Cube.005",
            "primitives" : [
                {
                    "attributes" : {
                        "POSITION" : 22,
                        "NORMAL" : 23,
                        "TANGENT" : 24,
                        "TEXCOORD_0" : 25
                    },
                    "indices" : 4
                }
            ]
        },
        {
            "name" : "Sphere.001",
            "primitives" : [
                {
                    "attributes" : {
                        "POSITION" : 26,
                        "NORMAL" : 27,
                        "TANGENT" : 28,
                        "TEXCOORD_0" : 29
                    },
                    "indices" : 30
                }
            ]
        },
        {
            "name" : "Sphere.005",
            "primitives" : [
                {
                    "attributes" : {
                        "POSITION" : 31,
                        "NORMAL" : 32,
                        "TANGENT" : 33,
                        "TEXCOORD_0" : 34
                    },
                    "indices" : 30
                }
            ]
        },
        {
            "name" : "Plane.001",
            "primitives" : [
                {
                    "attributes" : {
                        "POSITION" : 35,
                        "NORMAL" : 36,
                        "TANGENT" : 37,
                        "TEXCOORD_0" : 38
                    },
                    "indices" : 39,
                    "material" : 1
                }
            ]
        },
        {
            "name" : "Plane",
            "primitives" : [
                {
                    "attributes" : {
                        "POSITION" : 40,
                        "NORMAL" : 41,
                        "TANGENT" : 42,
                        "TEXCOORD_0" : 43
                    },
                    "indices" : 39,
                    "material" : 2
                }
            ]
        }
    ],
    "accessors" : [
        {
            "bufferView" : 0,
            "componentType" : 5126,
            "count" : 24,
            "max" : [
                1.6527403593063354,
                1.6527403593063354,
                1.6527403593063354
            ],
            "min" : [
                -1.6527403593063354,
                -1.6527403593063354,
                -1.6527403593063354
            ],
            "type" : "VEC3"
        },
        {
            "bufferView" : 1,
            "componentType" : 5126,
            "count" : 24,
            "type" : "VEC3"
        },
        {
            "bufferView" : 2,
            "componentType" : 5126,
            "count" : 24,
            "type" : "VEC4"
        },
        {
            "bufferView" : 3,
            "componentType" : 5126,
            "count" : 24,
            "type" : "VEC2"
        },
        {
            "bufferView" : 4,
            "componentType" : 5123,
            "count" : 36,
            "type" : "SCALAR"
        },
        {
            "bufferView" : 5,
            "componentType" : 5126,
            "count" : 1984,
            "max" : [
                0.025399992242455482,
                0.025399990379810333,
                0.025399990379810333
            ],
            "min" : [
                -0.02539997361600399,
                -0.025399990379810333,
                -0.025399990379810333
            ],
            "type" : "VEC3"
        },
        {
            "bufferView" : 6,
            "componentType" : 5126,
            "count" : 1984,
            "type" : "VEC3"
        },
        {
            "bufferView" : 7,
            "componentType" : 5126,
            "count" : 1984,
            "type" : "VEC4"
        },
        {
            "bufferView" : 8,
            "componentType" : 5126,
            "count" : 1984,
            "type" : "VEC2"
        },
        {
            "bufferView" : 9,
            "componentType" : 5123,
            "count" : 2880,
            "type" : "SCALAR"
        },
        {
            "bufferView" : 10,
            "componentType" : 5126,
            "count" : 24,
            "max" : [
                1.6527403593063354,
                1.6527403593063354,
                1.6527403593063354
            ],
            "min" : [
                -1.6527403593063354,
                -1.6527403593063354,
                -1.6527403593063354
            ],
            "type" : "VEC3"
        },
        {
            "bufferView" : 11,
            "componentType" : 5126,
            "count" : 24,
            "type" : "VEC3"
        },
        {
            "bufferView" : 12,
            "componentType" : 5126,
            "count" : 24,
            "type" : "VEC4"
        },
        {
            "bufferView" : 13,
            "componentType" : 5126,
            "count" : 24,
            "type" : "VEC2"
        },
        {
            "bufferView" : 14,
            "componentType" : 5126,
            "count" : 24,
            "max" : [
                1.6527403593063354,
                1.6527403593063354,
                1.6527403593063354
            ],
            "min" : [
                -1.6527403593063354,
                -1.6527403593063354,
                -1.6527403593063354
            ],
            "type" : "VEC3"
        },
        {
            "bufferView" : 15,
            "componentType" : 5126,
            "count" : 24,
            "type" : "VEC3"
        },
        {
            "bufferView" : 16,
            "componentType" : 5126,
            "count" : 24,
            "type" : "VEC4"
        },
        {
            "bufferView" : 17,
            "componentType" : 5126,
            "count" : 24,
            "type" : "VEC2"
        },
        {
            "bufferView" : 18,
            "componentType" : 5126,
            "count" : 24,
            "max" : [
                1.6527403593063354,
                1.6527403593063354,
                1.6527403593063354
            ],
            "min" : [
                -1.6527403593063354,
                -1.6527403593063354,
                -1.6527403593063354
            ],
            "type" : "VEC3"
        },
        {
            "bufferView" : 19,
            "componentType" : 5126,
            "count" : 24,
            "type" : "VEC3"
        },
        {
            "bufferView" : 20,
            "componentType" : 5126,
            "count" : 24,
            "type" : "VEC4"
        },
        {
            "bufferView" : 21,
            "componentType" : 5126,
            "count" : 24,
            "type" : "VEC2"
        },
        {
            "bufferView" : 22,
            "componentType" : 5126,
            "count" : 24,
            "max" : [
                1.6527403593063354,
                1.6527403593063354,
                1.6527403593063354
            ],
            "min" : [
                -1.6527403593063354,
                -1.6527403593063354,
                -1.6527403593063354
            ],
            "type" : "VEC3"
        },
        {
            "bufferView" : 23,
            "componentType" : 5126,
            "count" : 24,
            "type" : "VEC3"
        },
        {
            "bufferView" : 24,
            "componentType" : 5126,
            "count" : 24,
            "type" : "VEC4"
        },
        {
            "bufferView" : 25,
            "componentType" : 5126,
            "count" : 24,
            "type" : "VEC2"
        },
        {
            "bufferView" : 26,
            "componentType" : 5126,
            "count" : 1984,
            "max" : [
                0.025399992242455482,
                0.025399990379810333,
                0.025399990379810333
            ],
            "min" : [
                -0.02539997361600399,
                -0.025399990379810333,
                -0.025399990379810333
            ],
            "type" : "VEC3"
        },
        {
            "bufferView" : 27,
            "componentType" : 5126,
            "count" : 1984,
            "type" : "VEC3"
        },
        {
            "bufferView" : 28,
            "componentType" : 5126,
            "count" : 1984,
            "type" : "VEC4"
        },
        {
            "bufferView" : 29,
            "componentType" : 5126,
            "count" : 1984,
            "type" : "VEC2"
        },
        {
            "bufferView" : 30,
            "componentType" : 5123,
            "count" : 2880,
            "type" : "SCALAR"
        },
        {
            "bufferView" : 31,
            "componentType" : 5126,
            "count" : 1984,
            "max" : [
                0.025399992242455482,
                0.025399990379810333,
                0.025399990379810333
            ],
            "min" : [
                -0.02539997361600399,
                -0.025399990379810333,
                -0.025399990379810333
            ],
            "type" : "VEC3"
        },
        {
            "bufferView" : 32,
            "componentType" : 5126,
            "count" : 1984,
            "type" : "VEC3"
        },
        {
            "bufferView" : 33,
            "componentType" : 5126,
            "count" : 1984,
            "type" : "VEC4"
        },
        {
            "bufferView" : 34,
            "componentType" : 5126,
            "count" : 1984,
            "type" : "VEC2"
        },
        {
            "bufferView" : 35,
            "componentType" : 5126,
            "count" : 4,
            "max" : [
                1.5239999294281006,
                0,
                1.5239999294281006
            ],
            "min" : [
                -1.5239999294281006,
                0,
                -1.5239999294281006
            ],
            "type" : "VEC3"
        },
        {
            "bufferView" : 36,
            "componentType" : 5126,
            "count" : 4,
            "type" : "VEC3"
        },
        {
            "bufferView" : 37,
            "componentType" : 5126,
            "count" : 4,
            "type" : "VEC4"
        },
        {
            "bufferView" : 38,
            "componentType" : 5126,
            "count" : 4,
            "type" : "VEC2"
        },
        {
            "bufferView" : 39,
            "componentType" : 5123,
            "count" : 6,
            "type" : "SCALAR"
        },
        {
            "bufferView" : 40,
            "componentType" : 5126,
            "count" : 4,
            "max" : [
                1.5239999294281006,
                0,
                1.5239999294281006
            ],
            "min" : [
                -1.5239999294281006,
                0,
                -1.5239999294281006
            ],
            "type" : "VEC3"
        },
        {
            "bufferView" : 41,
            "componentType" : 5126,
            "count" : 4,
            "type" : "VEC3"
        },
        {
            "bufferView" : 42,
            "componentType" : 5126,
            "count" : 4,
            "type" : "VEC4"
        },
        {
            "bufferView" : 43,
            "componentType" : 5126,
            "count" : 4,
            "type" : "VEC2"
        }
    ],
    "bufferViews" : [
        {
            "buffer" : 0,
            "byteLength" : 288,
            "byteOffset" : 0
        },
        {
            "buffer" : 0,
            "byteLength" : 288,
            "byteOffset" : 288
        },
        {
            "buffer" : 0,
            "byteLength" : 384,
            "byteOffset" : 576
        },
        {
            "buffer" : 0,
            "byteLength" : 192,
            "byteOffset" : 960
        },
        {
            "buffer" : 0,
            "byteLength" : 72,
            "byteOffset" : 1152
        },
        {
            "buffer" : 0,
            "byteLength" : 23808,
            "byteOffset" : 1224
        },
        {
            "buffer" : 0,
            "byteLength" : 23808,
            "byteOffset" : 25032
        },
        {
            "buffer" : 0,
            "byteLength" : 31744,
            "byteOffset" : 48840
        },
        {
            "buffer" : 0,
            "byteLength" : 15872,
            "byteOffset" : 80584
        },
        {
            "buffer" : 0,
            "byteLength" : 5760,
            "byteOffset" : 96456
        },
        {
            "buffer" : 0,
            "byteLength" : 288,
            "byteOffset" : 102216
        },
        {
            "buffer" : 0,
            "byteLength" : 288,
            "byteOffset" : 102504
        },
        {
            "buffer" : 0,
            "byteLength" : 384,
            "byteOffset" : 102792
        },
        {
            "buffer" : 0,
            "byteLength" : 192,
            "byteOffset" : 103176
        },
        {
            "buffer" : 0,
            "byteLength" : 288,
            "byteOffset" : 103368
        },
        {
            "buffer" : 0,
            "byteLength" : 288,
            "byteOffset" : 103656
        },
        {
            "buffer" : 0,
            "byteLength" : 384,
            "byteOffset" : 103944
        },
        {
            "buffer" : 0,
            "byteLength" : 192,
            "byteOffset" : 104328
        },
        {
            "buffer" : 0,
            "byteLength" : 288,
            "byteOffset" : 104520
        },
        {
            "buffer" : 0,
            "byteLength" : 288,
            "byteOffset" : 104808
        },
        {
            "buffer" : 0,
            "byteLength" : 384,
            "byteOffset" : 105096
        },
        {
            "buffer" : 0,
            "byteLength" : 192,
            "byteOffset" : 105480
        },
        {
            "buffer" : 0,
            "byteLength" : 288,
            "byteOffset" : 105672
        },
        {
            "buffer" : 0,
            "byteLength" : 288,
            "byteOffset" : 105960
        },
        {
            "buffer" : 0,
            "byteLength" : 384,
            "byteOffset" : 106248
        },
        {
            "buffer" : 0,
            "byteLength" : 192,
            "byteOffset" : 106632
        },
        {
            "buffer" : 0,
            "byteLength" : 23808,
            "byteOffset" : 106824
        },
        {
            "buffer" : 0,
            "byteLength" : 23808,
            "byteOffset" : 130632
        },
        {
            "buffer" : 0,
            "byteLength" : 31744,
            "byteOffset" : 154440
        },
        {
            "buffer" : 0,
            "byteLength" : 15872,
            "byteOffset" : 186184
        },
        {
            "buffer" : 0,
            "byteLength" : 5760,
            "byteOffset" : 202056
        },
        {
            "buffer" : 0,
            "byteLength" : 23808,
            "byteOffset" : 207816
        },
        {
            "buffer" : 0,
            "byteLength" : 23808,
            "byteOffset" : 231624
        },
        {
            "buffer" : 0,
            "byteLength" : 31744,
            "byteOffset" : 255432
        },
        {
            "buffer" : 0,
            "byteLength" : 15872,
            "byteOffset" : 287176
        },
        {
            "buffer" : 0,
            "byteLength" : 48,
            "byteOffset" : 303048
        },
        {
            "buffer" : 0,
            "byteLength" : 48,
            "byteOffset" : 303096
        },
        {
            "buffer" : 0,
            "byteLength" : 64,
            "byteOffset" : 303144
        },
        {
            "buffer" : 0,
            "byteLength" : 32,
            "byteOffset" : 303208
        },
        {
            "buffer" : 0,
            "byteLength" : 12,
            "byteOffset" : 303240
        },
        {
            "buffer" : 0,
            "byteLength" : 48,
            "byteOffset" : 303252
        },
        {
            "buffer" : 0,
            "byteLength" : 48,
            "byteOffset" : 303300
        },
        {
            "buffer" : 0,
            "byteLength" : 64,
            "byteOffset" : 303348
        },
        {
            "buffer" : 0,
            "byteLength" : 32,
            "byteOffset" : 303412
        }
    ],
    "buffers" : [
        {
            "byteLength" : 303444,
            "uri" : "data:application/octet-stream;base64,"
        }
    ]
}
