{
    "asset" : {
        "generator" : "Khronos glTF Blender I/O v1.0.5",
        "version" : "2.0"
    },
    "scene" : 0,
    "scenes" : [
        {
            "extras" : {
                "rpr" : {
                    "saved_addon_version" : [
                        2,
                        2,
                        1
                    ]
                }
            },
            "name" : "Scene",
            "nodes" : [
                1,
                2,
                3,
                4,
                5,
                6,
                7,
                8,
                9,
                10,
                11,
                12
            ]
        }
    ],
    "nodes" : [
        {
            "camera" : 0,
            "name" : "Camera_Orientation",
            "rotation" : [
                -0.7071067690849304,
                0,
                0,
                0.7071067690849304
            ]
        },
        {
            "children" : [
                0
            ],
            "name" : "Camera",
            "rotation" : [
                0.48596397042274475,
                0.3357165455818176,
                -0.21055778861045837,
                0.7789729237556458
            ],
            "translation" : [
                6.409782886505127,
                3.5539662837982178,
                4.279792785644531
            ]
        },
        {
            "mesh" : 0,
            "name" : "Cube",
            "scale" : [
                0.09221049398183823,
                0.13831573724746704,
                0.007684207521378994
            ],
            "translation" : [
                0,
                0.22859999537467957,
                -0.297507107257843
            ]
        },
        {
            "mesh" : 1,
            "name" : "Sphere",
            "scale" : [
                1.500001072883606,
                1.5000005960464478,
                1.5000005960464478
            ],
            "translation" : [
                0,
                0.22859999537467957,
                -0.04388606548309326
            ]
        },
        {
            "mesh" : 2,
            "name" : "Plane",
            "rotation" : [
                0,
                0,
                -0.0008726644446142018,
                1
            ],
            "scale" : [
                1,
                1,
                0.3333333730697632
            ],
            "translation" : [
                0,
                0,
                -0.5080000162124634
            ]
        },
        {
            "mesh" : 3,
            "name" : "Plane.001",
            "rotation" : [
                0.7071067690849304,
                0,
                0,
                0.7071067690849304
            ],
            "scale" : [
                1,
                1,
                0.6666667461395264
            ],
            "translation" : [
                0,
                1.0160000324249268,
                -1.0160000324249268
            ]
        },
        {
            "name" : "Sun",
            "translation" : [
                0,
                2.5721569061279297,
                1.318235158920288
            ]
        },
        {
            "name" : "Point",
            "translation" : [
                -0.45719999074935913,
                0.22859999537467957,
                -0.07620000094175339
            ]
        },
        {
            "name" : "Point.001",
            "translation" : [
                0.45719999074935913,
                0.22859999537467957,
                -0.07620000094175339
            ]
        },
        {
            "mesh" : 4,
            "name" : "Cube.001",
            "scale" : [
                0.09605259448289871,
                0.003842103760689497,
                0.003842103760689497
            ],
            "translation" : [
                0,
                0.45719999074935913,
                0
            ]
        },
        {
            "mesh" : 5,
            "name" : "Cube.002",
            "rotation" : [
                0.7071067690849304,
                0,
                0,
                0.7071067690849304
            ],
            "scale" : [
                0.003842103760689497,
                0.003842103760689497,
                0.14215783774852753
            ],
            "translation" : [
                -0.15240000188350677,
                0.22859999537467957,
                0
            ]
        },
        {
            "mesh" : 6,
            "name" : "Cube.003",
            "scale" : [
                0.09605259448289871,
                0.003842103760689497,
                0.003842103760689497
            ],
            "translation" : [
                0,
                -0.00317499996162951,
                0
            ]
        },
        {
            "mesh" : 7,
            "name" : "Cube.004",
            "rotation" : [
                0.7071067690849304,
                0,
                0,
                0.7071067690849304
            ],
            "scale" : [
                0.003842103760689497,
                0.003842103760689497,
                0.14215783774852753
            ],
            "translation" : [
                0.15240000188350677,
                0.22859999537467957,
                0
            ]
        }
    ],
    "cameras" : [
        {
            "name" : "Camera",
            "perspective" : {
                "yfov" : 0.39959648408210363,
                "zfar" : 100,
                "znear" : 0.10000000149011612
            },
            "type" : "perspective"
        }
    ],
    "animations" : [
        {
            "channels" : [
                {
                    "sampler" : 0,
                    "target" : {
                        "node" : 3,
                        "path" : "translation"
                    }
                }
            ],
            "name" : "SphereAction",
            "samplers" : [
                {
                    "input" : 35,
                    "interpolation" : "LINEAR",
                    "output" : 36
                }
            ]
        }
    ],
    "materials" : [
        {
            "doubleSided" : true,
            "name" : "Material.003",
            "pbrMetallicRoughness" : {
                "metallicFactor" : 0,
                "roughnessFactor" : 0.5
            }
        },
        {
            "doubleSided" : true,
            "name" : "Material.001",
            "pbrMetallicRoughness" : {
                "baseColorFactor" : [
                    0.07323739677667618,
                    0.07323739677667618,
                    0.07323739677667618,
                    1
                ],
                "metallicFactor" : 0,
                "roughnessFactor" : 0.5
            }
        },
        {
            "doubleSided" : true,
            "name" : "Material.002",
            "pbrMetallicRoughness" : {
                "baseColorFactor" : [
                    0.3588448464870453,
                    0.3588448464870453,
                    0.3588448464870453,
                    1
                ],
                "metallicFactor" : 0,
                "roughnessFactor" : 0.5
            }
        }
    ],
    "meshes" : [
        {
            "name" : "Cube.001",
            "primitives" : [
                {
                    "attributes" : {
                        "POSITION" : 0,
                        "NORMAL" : 1,
                        "TANGENT" : 2,
                        "TEXCOORD_0" : 3
                    },
                    "indices" : 4,
                    "material" : 0
                }
            ]
        },
        {
            "name" : "Sphere",
            "primitives" : [
                {
                    "attributes" : {
                        "POSITION" : 5,
                        "NORMAL" : 6,
                        "TANGENT" : 7,
                        "TEXCOORD_0" : 8
                    },
                    "indices" : 9
                }
            ]
        },
        {
            "name" : "Plane",
            "primitives" : [
                {
                    "attributes" : {
                        "POSITION" : 10,
                        "NORMAL" : 11,
                        "TANGENT" : 12,
                        "TEXCOORD_0" : 13
                    },
                    "indices" : 14,
                    "material" : 1
                }
            ]
        },
        {
            "name" : "Plane.001",
            "primitives" : [
                {
                    "attributes" : {
                        "POSITION" : 15,
                        "NORMAL" : 16,
                        "TANGENT" : 17,
                        "TEXCOORD_0" : 18
                    },
                    "indices" : 14,
                    "material" : 2
                }
            ]
        },
        {
            "name" : "Cube.002",
            "primitives" : [
                {
                    "attributes" : {
                        "POSITION" : 19,
                        "NORMAL" : 20,
                        "TANGENT" : 21,
                        "TEXCOORD_0" : 22
                    },
                    "indices" : 4
                }
            ]
        },
        {
            "name" : "Cube.003",
            "primitives" : [
                {
                    "attributes" : {
                        "POSITION" : 23,
                        "NORMAL" : 24,
                        "TANGENT" : 25,
                        "TEXCOORD_0" : 26
                    },
                    "indices" : 4
                }
            ]
        },
        {
            "name" : "Cube.004",
            "primitives" : [
                {
                    "attributes" : {
                        "POSITION" : 27,
                        "NORMAL" : 28,
                        "TANGENT" : 29,
                        "TEXCOORD_0" : 30
                    },
                    "indices" : 4
                }
            ]
        },
        {
            "name" : "Cube.005",
            "primitives" : [
                {
                    "attributes" : {
                        "POSITION" : 31,
                        "NORMAL" : 32,
                        "TANGENT" : 33,
                        "TEXCOORD_0" : 34
                    },
                    "indices" : 4
                }
            ]
        }
    ],
    "accessors" : [
        {
            "bufferView" : 0,
            "componentType" : 5126,
            "count" : 24,
            "max" : [
                1.6527403593063354,
                1.6527403593063354,
                1.6527403593063354
            ],
            "min" : [
                -1.6527403593063354,
                -1.6527403593063354,
                -1.6527403593063354
            ],
            "type" : "VEC3"
        },
        {
            "bufferView" : 1,
            "componentType" : 5126,
            "count" : 24,
            "type" : "VEC3"
        },
        {
            "bufferView" : 2,
            "componentType" : 5126,
            "count" : 24,
            "type" : "VEC4"
        },
        {
            "bufferView" : 3,
            "componentType" : 5126,
            "count" : 24,
            "type" : "VEC2"
        },
        {
            "bufferView" : 4,
            "componentType" : 5123,
            "count" : 36,
            "type" : "SCALAR"
        },
        {
            "bufferView" : 5,
            "componentType" : 5126,
            "count" : 31744,
            "max" : [
                0.02507566660642624,
                0.025338437408208847,
                0.02507566474378109
            ],
            "min" : [
                -0.025075647979974747,
                -0.025338437408208847,
                -0.025075659155845642
            ],
            "type" : "VEC3"
        },
        {
            "bufferView" : 6,
            "componentType" : 5126,
            "count" : 31744,
            "type" : "VEC3"
        },
        {
            "bufferView" : 7,
            "componentType" : 5126,
            "count" : 31744,
            "type" : "VEC4"
        },
        {
            "bufferView" : 8,
            "componentType" : 5126,
            "count" : 31744,
            "type" : "VEC2"
        },
        {
            "bufferView" : 9,
            "componentType" : 5123,
            "count" : 47616,
            "type" : "SCALAR"
        },
        {
            "bufferView" : 10,
            "componentType" : 5126,
            "count" : 4,
            "max" : [
                1.5239999294281006,
                0,
                1.5239999294281006
            ],
            "min" : [
                -1.5239999294281006,
                0,
                -1.5239999294281006
            ],
            "type" : "VEC3"
        },
        {
            "bufferView" : 11,
            "componentType" : 5126,
            "count" : 4,
            "type" : "VEC3"
        },
        {
            "bufferView" : 12,
            "componentType" : 5126,
            "count" : 4,
            "type" : "VEC4"
        },
        {
            "bufferView" : 13,
            "componentType" : 5126,
            "count" : 4,
            "type" : "VEC2"
        },
        {
            "bufferView" : 14,
            "componentType" : 5123,
            "count" : 6,
            "type" : "SCALAR"
        },
        {
            "bufferView" : 15,
            "componentType" : 5126,
            "count" : 4,
            "max" : [
                1.5239999294281006,
                0,
                1.5239999294281006
            ],
            "min" : [
                -1.5239999294281006,
                0,
                -1.5239999294281006
            ],
            "type" : "VEC3"
        },
        {
            "bufferView" : 16,
            "componentType" : 5126,
            "count" : 4,
            "type" : "VEC3"
        },
        {
            "bufferView" : 17,
            "componentType" : 5126,
            "count" : 4,
            "type" : "VEC4"
        },
        {
            "bufferView" : 18,
            "componentType" : 5126,
            "count" : 4,
            "type" : "VEC2"
        },
        {
            "bufferView" : 19,
            "componentType" : 5126,
            "count" : 24,
            "max" : [
                1.6527403593063354,
                1.6527403593063354,
                1.6527403593063354
            ],
            "min" : [
                -1.6527403593063354,
                -1.6527403593063354,
                -1.6527403593063354
            ],
            "type" : "VEC3"
        },
        {
            "bufferView" : 20,
            "componentType" : 5126,
            "count" : 24,
            "type" : "VEC3"
        },
        {
            "bufferView" : 21,
            "componentType" : 5126,
            "count" : 24,
            "type" : "VEC4"
        },
        {
            "bufferView" : 22,
            "componentType" : 5126,
            "count" : 24,
            "type" : "VEC2"
        },
        {
            "bufferView" : 23,
            "componentType" : 5126,
            "count" : 24,
            "max" : [
                1.6527403593063354,
                1.6527403593063354,
                1.6527403593063354
            ],
            "min" : [
                -1.6527403593063354,
                -1.6527403593063354,
                -1.6527403593063354
            ],
            "type" : "VEC3"
        },
        {
            "bufferView" : 24,
            "componentType" : 5126,
            "count" : 24,
            "type" : "VEC3"
        },
        {
            "bufferView" : 25,
            "componentType" : 5126,
            "count" : 24,
            "type" : "VEC4"
        },
        {
            "bufferView" : 26,
            "componentType" : 5126,
            "count" : 24,
            "type" : "VEC2"
        },
        {
            "bufferView" : 27,
            "componentType" : 5126,
            "count" : 24,
            "max" : [
                1.6527403593063354,
                1.6527403593063354,
                1.6527403593063354
            ],
            "min" : [
                -1.6527403593063354,
                -1.6527403593063354,
                -1.6527403593063354
            ],
            "type" : "VEC3"
        },
        {
            "bufferView" : 28,
            "componentType" : 5126,
            "count" : 24,
            "type" : "VEC3"
        },
        {
            "bufferView" : 29,
            "componentType" : 5126,
            "count" : 24,
            "type" : "VEC4"
        },
        {
            "bufferView" : 30,
            "componentType" : 5126,
            "count" : 24,
            "type" : "VEC2"
        },
        {
            "bufferView" : 31,
            "componentType" : 5126,
            "count" : 24,
            "max" : [
                1.6527403593063354,
                1.6527403593063354,
                1.6527403593063354
            ],
            "min" : [
                -1.6527403593063354,
                -1.6527403593063354,
                -1.6527403593063354
            ],
            "type" : "VEC3"
        },
        {
            "bufferView" : 32,
            "componentType" : 5126,
            "count" : 24,
            "type" : "VEC3"
        },
        {
            "bufferView" : 33,
            "componentType" : 5126,
            "count" : 24,
            "type" : "VEC4"
        },
        {
            "bufferView" : 34,
            "componentType" : 5126,
            "count" : 24,
            "type" : "VEC2"
        },
        {
            "bufferView" : 35,
            "componentType" : 5126,
            "count" : 51,
            "max" : [
                2.0833333333333335
            ],
            "min" : [
                0
            ],
            "type" : "SCALAR"
        },
        {
            "bufferView" : 36,
            "componentType" : 5126,
            "count" : 51,
            "type" : "VEC3"
        }
    ],
    "bufferViews" : [
        {
            "buffer" : 0,
            "byteLength" : 288,
            "byteOffset" : 0
        },
        {
            "buffer" : 0,
            "byteLength" : 288,
            "byteOffset" : 288
        },
        {
            "buffer" : 0,
            "byteLength" : 384,
            "byteOffset" : 576
        },
        {
            "buffer" : 0,
            "byteLength" : 192,
            "byteOffset" : 960
        },
        {
            "buffer" : 0,
            "byteLength" : 72,
            "byteOffset" : 1152
        },
        {
            "buffer" : 0,
            "byteLength" : 380928,
            "byteOffset" : 1224
        },
        {
            "buffer" : 0,
            "byteLength" : 380928,
            "byteOffset" : 382152
        },
        {
            "buffer" : 0,
            "byteLength" : 507904,
            "byteOffset" : 763080
        },
        {
            "buffer" : 0,
            "byteLength" : 253952,
            "byteOffset" : 1270984
        },
        {
            "buffer" : 0,
            "byteLength" : 95232,
            "byteOffset" : 1524936
        },
        {
            "buffer" : 0,
            "byteLength" : 48,
            "byteOffset" : 1620168
        },
        {
            "buffer" : 0,
            "byteLength" : 48,
            "byteOffset" : 1620216
        },
        {
            "buffer" : 0,
            "byteLength" : 64,
            "byteOffset" : 1620264
        },
        {
            "buffer" : 0,
            "byteLength" : 32,
            "byteOffset" : 1620328
        },
        {
            "buffer" : 0,
            "byteLength" : 12,
            "byteOffset" : 1620360
        },
        {
            "buffer" : 0,
            "byteLength" : 48,
            "byteOffset" : 1620372
        },
        {
            "buffer" : 0,
            "byteLength" : 48,
            "byteOffset" : 1620420
        },
        {
            "buffer" : 0,
            "byteLength" : 64,
            "byteOffset" : 1620468
        },
        {
            "buffer" : 0,
            "byteLength" : 32,
            "byteOffset" : 1620532
        },
        {
            "buffer" : 0,
            "byteLength" : 288,
            "byteOffset" : 1620564
        },
        {
            "buffer" : 0,
            "byteLength" : 288,
            "byteOffset" : 1620852
        },
        {
            "buffer" : 0,
            "byteLength" : 384,
            "byteOffset" : 1621140
        },
        {
            "buffer" : 0,
            "byteLength" : 192,
            "byteOffset" : 1621524
        },
        {
            "buffer" : 0,
            "byteLength" : 288,
            "byteOffset" : 1621716
        },
        {
            "buffer" : 0,
            "byteLength" : 288,
            "byteOffset" : 1622004
        },
        {
            "buffer" : 0,
            "byteLength" : 384,
            "byteOffset" : 1622292
        },
        {
            "buffer" : 0,
            "byteLength" : 192,
            "byteOffset" : 1622676
        },
        {
            "buffer" : 0,
            "byteLength" : 288,
            "byteOffset" : 1622868
        },
        {
            "buffer" : 0,
            "byteLength" : 288,
            "byteOffset" : 1623156
        },
        {
            "buffer" : 0,
            "byteLength" : 384,
            "byteOffset" : 1623444
        },
        {
            "buffer" : 0,
            "byteLength" : 192,
            "byteOffset" : 1623828
        },
        {
            "buffer" : 0,
            "byteLength" : 288,
            "byteOffset" : 1624020
        },
        {
            "buffer" : 0,
            "byteLength" : 288,
            "byteOffset" : 1624308
        },
        {
            "buffer" : 0,
            "byteLength" : 384,
            "byteOffset" : 1624596
        },
        {
            "buffer" : 0,
            "byteLength" : 192,
            "byteOffset" : 1624980
        },
        {
            "buffer" : 0,
            "byteLength" : 204,
            "byteOffset" : 1625172
        },
        {
            "buffer" : 0,
            "byteLength" : 612,
            "byteOffset" : 1625376
        }
    ],
    "buffers" : [
        {
            "byteLength" : 1625988,
            "uri" : "data:application/octet-stream;base64,"
        }
    ]
}
