{
    "asset" : {
        "generator" : "Khronos glTF Blender I/O v1.0.5",
        "version" : "2.0"
    },
    "extensionsUsed" : [
        "KHR_lights_punctual"
    ],
    "extensionsRequired" : [
        "KHR_lights_punctual"
    ],
    "extensions" : {
        "KHR_lights_punctual" : {
            "lights" : [
                {
                    "color" : [
                        1,
                        1,
                        1
                    ],
                    "intensity" : 4.699999809265137,
                    "type" : "directional",
                    "name" : "Sun"
                },
                {
                    "color" : [
                        1,
                        0.8618404269218445,
                        0.3211539685726166
                    ],
                    "intensity" : 5,
                    "type" : "point",
                    "name" : "Point.001"
                }
            ]
        }
    },
    "scene" : 0,
    "scenes" : [
        {
            "extras" : {
                "rpr" : {
                    "saved_addon_version" : [
                        2,
                        2,
                        1
                    ]
                }
            },
            "name" : "Scene",
            "nodes" : [
                0,
                2,
                3,
                4,
                6,
                8,
                9,
                10,
                11,
                12
            ]
        }
    ],
    "nodes" : [
        {
            "mesh" : 0,
            "name" : "Ground",
            "scale" : [
                25.000009536743164,
                2.5000009536743164,
                10.000003814697266
            ],
            "translation" : [
                0,
                -0.02309710532426834,
                -0.2759515047073364
            ]
        },
        {
            "camera" : 0,
            "name" : "Camera_Orientation",
            "rotation" : [
                -0.7071067690849304,
                0,
                0,
                0.7071067690849304
            ]
        },
        {
            "children" : [
                1
            ],
            "name" : "Camera",
            "rotation" : [
                0.48596397042274475,
                0.3357165455818176,
                -0.21055778861045837,
                0.7789729237556458
            ],
            "translation" : [
                6.409782886505127,
                3.5539662837982178,
                4.279792785644531
            ]
        },
        {
            "mesh" : 1,
            "name" : "Plane",
            "rotation" : [
                0,
                0,
                -0.0008726644446142018,
                1
            ],
            "scale" : [
                1,
                1,
                0.3333333730697632
            ],
            "translation" : [
                0,
                0,
                -0.5080000162124634
            ]
        },
        {
            "mesh" : 2,
            "name" : "Space",
            "rotation" : [
                0.7071067690849304,
                0,
                0,
                0.7071067690849304
            ],
            "scale" : [
                1,
                1,
                0.6666667461395264
            ],
            "translation" : [
                0,
                1.0160000324249268,
                -1.0160000324249268
            ]
        },
        {
            "extensions" : {
                "KHR_lights_punctual" : {
                    "light" : 0
                }
            },
            "name" : "Sun_Orientation",
            "rotation" : [
                -0.7071067690849304,
                0,
                0,
                0.7071067690849304
            ]
        },
        {
            "children" : [
                5
            ],
            "name" : "Sun",
            "translation" : [
                0,
                2.5653998851776123,
                1.3207999467849731
            ]
        },
        {
            "extensions" : {
                "KHR_lights_punctual" : {
                    "light" : 1
                }
            },
            "name" : "Point_Orientation",
            "rotation" : [
                -0.7071067690849304,
                0,
                0,
                0.7071067690849304
            ]
        },
        {
            "children" : [
                7
            ],
            "name" : "Point",
            "translation" : [
                -0.1873500496149063,
                0.4579230546951294,
                0.7282922267913818
            ]
        },
        {
            "mesh" : 3,
            "name" : "Cube.001",
            "scale" : [
                0.14215783774852753,
                0.003842103760689497,
                0.003842103760689497
            ],
            "translation" : [
                0,
                0.6096000075340271,
                0
            ]
        },
        {
            "mesh" : 4,
            "name" : "Cube.002",
            "rotation" : [
                0.7071067690849304,
                0,
                0,
                0.7071067690849304
            ],
            "scale" : [
                0.003842103760689497,
                0.003842103760689497,
                0.18826307356357574
            ],
            "translation" : [
                -0.22859999537467957,
                0.30480000376701355,
                0
            ]
        },
        {
            "mesh" : 5,
            "name" : "Cube.003",
            "scale" : [
                0.14215783774852753,
                0.003842103760689497,
                0.003842103760689497
            ],
            "translation" : [
                0,
                -0.00317499996162951,
                0
            ]
        },
        {
            "mesh" : 6,
            "name" : "Cube.004",
            "rotation" : [
                0.7071067690849304,
                0,
                0,
                0.7071067690849304
            ],
            "scale" : [
                0.003842103760689497,
                0.003842103760689497,
                0.18826307356357574
            ],
            "translation" : [
                0.22859999537467957,
                0.30480000376701355,
                0
            ]
        }
    ],
    "cameras" : [
        {
            "name" : "Camera",
            "perspective" : {
                "yfov" : 0.39959648408210363,
                "zfar" : 100,
                "znear" : 0.10000000149011612
            },
            "type" : "perspective"
        }
    ],
    "materials" : [
        {
            "doubleSided" : true,
            "name" : "Material.001",
            "pbrMetallicRoughness" : {
                "baseColorFactor" : [
                    0.07323739677667618,
                    0.07323739677667618,
                    0.07323739677667618,
                    1
                ],
                "metallicFactor" : 0,
                "roughnessFactor" : 0.5
            }
        },
        {
            "doubleSided" : true,
            "name" : "Material.002",
            "pbrMetallicRoughness" : {
                "baseColorTexture" : {
                    "index" : 0,
                    "texCoord" : 0
                },
                "metallicFactor" : 0,
                "roughnessFactor" : 0.5
            }
        }
    ],
    "meshes" : [
        {
            "name" : "Cube",
            "primitives" : [
                {
                    "attributes" : {
                        "POSITION" : 0,
                        "NORMAL" : 1,
                        "TEXCOORD_0" : 2
                    },
                    "indices" : 3
                }
            ]
        },
        {
            "name" : "Plane",
            "primitives" : [
                {
                    "attributes" : {
                        "POSITION" : 4,
                        "NORMAL" : 5,
                        "TEXCOORD_0" : 6
                    },
                    "indices" : 7,
                    "material" : 0
                }
            ]
        },
        {
            "name" : "Plane.001",
            "primitives" : [
                {
                    "attributes" : {
                        "POSITION" : 8,
                        "NORMAL" : 9,
                        "TEXCOORD_0" : 10
                    },
                    "indices" : 7,
                    "material" : 1
                }
            ]
        },
        {
            "name" : "Cube.002",
            "primitives" : [
                {
                    "attributes" : {
                        "POSITION" : 11,
                        "NORMAL" : 12,
                        "TEXCOORD_0" : 13
                    },
                    "indices" : 3
                }
            ]
        },
        {
            "name" : "Cube.003",
            "primitives" : [
                {
                    "attributes" : {
                        "POSITION" : 14,
                        "NORMAL" : 15,
                        "TEXCOORD_0" : 16
                    },
                    "indices" : 3
                }
            ]
        },
        {
            "name" : "Cube.004",
            "primitives" : [
                {
                    "attributes" : {
                        "POSITION" : 17,
                        "NORMAL" : 18,
                        "TEXCOORD_0" : 19
                    },
                    "indices" : 3
                }
            ]
        },
        {
            "name" : "Cube.005",
            "primitives" : [
                {
                    "attributes" : {
                        "POSITION" : 20,
                        "NORMAL" : 21,
                        "TEXCOORD_0" : 22
                    },
                    "indices" : 3
                }
            ]
        }
    ],
    "textures" : [
        {
            "source" : 0
        }
    ],
    "images" : [
        {
            "bufferView" : 11,
            "mimeType" : "image/png",
            "name" : "poster"
        }
    ],
    "accessors" : [
        {
            "bufferView" : 0,
            "componentType" : 5126,
            "count" : 24,
            "max" : [
                0.025399990379810333,
                0.025399990379810333,
                0.025399990379810333
            ],
            "min" : [
                -0.025399990379810333,
                -0.025399990379810333,
                -0.025399990379810333
            ],
            "type" : "VEC3"
        },
        {
            "bufferView" : 1,
            "componentType" : 5126,
            "count" : 24,
            "type" : "VEC3"
        },
        {
            "bufferView" : 2,
            "componentType" : 5126,
            "count" : 24,
            "type" : "VEC2"
        },
        {
            "bufferView" : 3,
            "componentType" : 5123,
            "count" : 36,
            "type" : "SCALAR"
        },
        {
            "bufferView" : 4,
            "componentType" : 5126,
            "count" : 4,
            "max" : [
                1.5239999294281006,
                0,
                1.5239999294281006
            ],
            "min" : [
                -1.5239999294281006,
                0,
                -1.5239999294281006
            ],
            "type" : "VEC3"
        },
        {
            "bufferView" : 5,
            "componentType" : 5126,
            "count" : 4,
            "type" : "VEC3"
        },
        {
            "bufferView" : 6,
            "componentType" : 5126,
            "count" : 4,
            "type" : "VEC2"
        },
        {
            "bufferView" : 7,
            "componentType" : 5123,
            "count" : 6,
            "type" : "SCALAR"
        },
        {
            "bufferView" : 8,
            "componentType" : 5126,
            "count" : 4,
            "max" : [
                1.5239999294281006,
                0,
                1.5239999294281006
            ],
            "min" : [
                -1.5239999294281006,
                0,
                -1.5239999294281006
            ],
            "type" : "VEC3"
        },
        {
            "bufferView" : 9,
            "componentType" : 5126,
            "count" : 4,
            "type" : "VEC3"
        },
        {
            "bufferView" : 10,
            "componentType" : 5126,
            "count" : 4,
            "type" : "VEC2"
        },
        {
            "bufferView" : 12,
            "componentType" : 5126,
            "count" : 24,
            "max" : [
                1.6527403593063354,
                1.6527403593063354,
                1.6527403593063354
            ],
            "min" : [
                -1.6527403593063354,
                -1.6527403593063354,
                -1.6527403593063354
            ],
            "type" : "VEC3"
        },
        {
            "bufferView" : 13,
            "componentType" : 5126,
            "count" : 24,
            "type" : "VEC3"
        },
        {
            "bufferView" : 14,
            "componentType" : 5126,
            "count" : 24,
            "type" : "VEC2"
        },
        {
            "bufferView" : 15,
            "componentType" : 5126,
            "count" : 24,
            "max" : [
                1.6527403593063354,
                1.6527403593063354,
                1.6527403593063354
            ],
            "min" : [
                -1.6527403593063354,
                -1.6527403593063354,
                -1.6527403593063354
            ],
            "type" : "VEC3"
        },
        {
            "bufferView" : 16,
            "componentType" : 5126,
            "count" : 24,
            "type" : "VEC3"
        },
        {
            "bufferView" : 17,
            "componentType" : 5126,
            "count" : 24,
            "type" : "VEC2"
        },
        {
            "bufferView" : 18,
            "componentType" : 5126,
            "count" : 24,
            "max" : [
                1.6527403593063354,
                1.6527403593063354,
                1.6527403593063354
            ],
            "min" : [
                -1.6527403593063354,
                -1.6527403593063354,
                -1.6527403593063354
            ],
            "type" : "VEC3"
        },
        {
            "bufferView" : 19,
            "componentType" : 5126,
            "count" : 24,
            "type" : "VEC3"
        },
        {
            "bufferView" : 20,
            "componentType" : 5126,
            "count" : 24,
            "type" : "VEC2"
        },
        {
            "bufferView" : 21,
            "componentType" : 5126,
            "count" : 24,
            "max" : [
                1.6527403593063354,
                1.6527403593063354,
                1.6527403593063354
            ],
            "min" : [
                -1.6527403593063354,
                -1.6527403593063354,
                -1.6527403593063354
            ],
            "type" : "VEC3"
        },
        {
            "bufferView" : 22,
            "componentType" : 5126,
            "count" : 24,
            "type" : "VEC3"
        },
        {
            "bufferView" : 23,
            "componentType" : 5126,
            "count" : 24,
            "type" : "VEC2"
        }
    ],
    "bufferViews" : [
        {
            "buffer" : 0,
            "byteLength" : 288,
            "byteOffset" : 0
        },
        {
            "buffer" : 0,
            "byteLength" : 288,
            "byteOffset" : 288
        },
        {
            "buffer" : 0,
            "byteLength" : 192,
            "byteOffset" : 576
        },
        {
            "buffer" : 0,
            "byteLength" : 72,
            "byteOffset" : 768
        },
        {
            "buffer" : 0,
            "byteLength" : 48,
            "byteOffset" : 840
        },
        {
            "buffer" : 0,
            "byteLength" : 48,
            "byteOffset" : 888
        },
        {
            "buffer" : 0,
            "byteLength" : 32,
            "byteOffset" : 936
        },
        {
            "buffer" : 0,
            "byteLength" : 12,
            "byteOffset" : 968
        },
        {
            "buffer" : 0,
            "byteLength" : 48,
            "byteOffset" : 980
        },
        {
            "buffer" : 0,
            "byteLength" : 48,
            "byteOffset" : 1028
        },
        {
            "buffer" : 0,
            "byteLength" : 32,
            "byteOffset" : 1076
        },
        {
            "buffer" : 0,
            "byteLength" : 2358997,
            "byteOffset" : 1108
        },
        {
            "buffer" : 0,
            "byteLength" : 288,
            "byteOffset" : 2360108
        },
        {
            "buffer" : 0,
            "byteLength" : 288,
            "byteOffset" : 2360396
        },
        {
            "buffer" : 0,
            "byteLength" : 192,
            "byteOffset" : 2360684
        },
        {
            "buffer" : 0,
            "byteLength" : 288,
            "byteOffset" : 2360876
        },
        {
            "buffer" : 0,
            "byteLength" : 288,
            "byteOffset" : 2361164
        },
        {
            "buffer" : 0,
            "byteLength" : 192,
            "byteOffset" : 2361452
        },
        {
            "buffer" : 0,
            "byteLength" : 288,
            "byteOffset" : 2361644
        },
        {
            "buffer" : 0,
            "byteLength" : 288,
            "byteOffset" : 2361932
        },
        {
            "buffer" : 0,
            "byteLength" : 192,
            "byteOffset" : 2362220
        },
        {
            "buffer" : 0,
            "byteLength" : 288,
            "byteOffset" : 2362412
        },
        {
            "buffer" : 0,
            "byteLength" : 288,
            "byteOffset" : 2362700
        },
        {
            "buffer" : 0,
            "byteLength" : 192,
            "byteOffset" : 2362988
        }
    ],
    "buffers" : [
        {
            "byteLength" : 2363180,
            "uri" : "data:application/octet-stream;base64,"
        }
    ]
}
